<svg data-v-0dd9719b="" version="1.0" xmlns="http://www.w3.org/2000/svg" xmlns:xlink="http://www.w3.org/1999/xlink" width="100%" height="100%" viewBox="0 0 340.000000 250.000000" preserveAspectRatio="xMidYMid meet" color-interpolation-filters="sRGB" style="margin: auto;"> <rect data-v-0dd9719b="" x="0" y="0" width="100%" height="100%" fill="#fff" fill-opacity="1" class="background"></rect> <rect data-v-0dd9719b="" x="0" y="0" width="100%" height="100%" fill="url(#watermark)" fill-opacity="1" class="watermarklayer"></rect> <g data-v-0dd9719b="" fill="#333" class="icon-text-wrapper icon-svg-group iconsvg" transform="translate(48.084999084472656,95)"><g class="iconsvg-imagesvg" transform="translate(0,0)"><g><rect fill="#333" fill-opacity="0" stroke-width="2" x="0" y="0" width="60" height="60" class="image-rect"></rect> <svg x="0" y="0" width="60" height="60" filtersec="colorsb7192223507" class="image-svg-svg primary" style="overflow: visible;"><svg xmlns="http://www.w3.org/2000/svg" viewBox="-0.009996050968766212 -0.009996997192502022 100.0199966430664 100.0199966430664"><g fill-rule="evenodd"><path d="M38.17 47.33a9.17 9.17 0 1 1 9.16-9.16 9.17 9.17 0 0 1-9.16 9.16z" fill="#ff476c"></path><path d="M23.67 47.33a23.67 23.67 0 1 1 23.66-23.66h-14.5a9.17 9.17 0 1 0-9.16 9.16v14.5z" fill="#ff476c"></path><path d="M61.83 47.33a9.17 9.17 0 1 0-9.16-9.16 9.17 9.17 0 0 0 9.16 9.16z" fill="#876afd"></path><path d="M76.33 47.33a23.67 23.67 0 1 0-23.66-23.66h14.5a9.17 9.17 0 1 1 9.16 9.16v14.5z" fill="#876afd"></path><path d="M61.83 52.67a9.17 9.17 0 1 1-9.16 9.16 9.17 9.17 0 0 1 9.16-9.16z" fill="#1bd1b8"></path><path d="M76.33 52.67a23.67 23.67 0 1 1-23.66 23.66h14.5a9.17 9.17 0 1 0 9.16-9.16v-14.5z" fill="#1bd1b8"></path><path d="M38.17 52.67a9.17 9.17 0 1 0 9.16 9.16 9.17 9.17 0 0 0-9.16-9.16z" fill="#f7cd01"></path><path d="M23.67 52.67a23.67 23.67 0 1 0 23.66 23.66h-14.5a9.17 9.17 0 1 1-9.16-9.16v-14.5z" fill="#f7cd01"></path></g></svg></svg> <!----></g></g> <g transform="translate(67,11.979999542236328)"><g data-gra="path-name" fill-rule="" class="tp-name iconsvg-namesvg"><g transform="scale(1)"><g><path d="M3.43 0L13.61 0 13.61-24.1 13.92-24.1 22.49 0 36.87 0 36.87-36.04 26.8-36.04 26.8-13.45 26.49-13.45 19.01-36.04 3.43-36.04ZM54.06-8.88L54.06-13.97 66.16-13.97 66.16-22.54 54.06-22.54 54.06-27.11 67.25-27.11 67.25-36.04 43.73-36.04 43.73 0 67.56 0 67.56-8.88ZM98.93 0L109.94 0 96.8-36.04 82.83-36.04 69.59 0 80.39 0 82.94-7.58 96.44-7.58ZM85.69-15.89L89.43-27.16 90.05-27.16 93.74-15.89ZM145.1 0L135.44-13.19C139.8-14.8 141.73-18.18 141.73-23.99 141.73-32.56 136.95-36.04 127.76-36.04L113.11-36.04 113.11 0 123.44 0 123.44-12.1 125.47-12.1 132.9 0ZM123.44-28.15L125.94-28.15C130.14-28.15 131.55-27.32 131.55-23.99 131.55-20.62 130.14-19.47 125.94-19.47L123.44-19.47ZM180.26 0L170.6-13.19C174.96-14.8 176.88-18.18 176.88-23.99 176.88-32.56 172.11-36.04 162.91-36.04L148.27-36.04 148.27 0 158.6 0 158.6-12.1 160.63-12.1 168.06 0ZM158.6-28.15L161.1-28.15C165.3-28.15 166.71-27.32 166.71-23.99 166.71-20.62 165.3-19.47 161.1-19.47L158.6-19.47Z" transform="translate(-3.430000066757202, 36.040000915527344)"></path></g> <!----> <!----> <!----> <!----> <!----> <!----> <!----></g></g> <!----></g></g><defs v-gra="od"></defs></svg>